<svg xmlns="http://www.w3.org/2000/svg" viewBox="0 0 900 900" role="img" aria-labelledby="title desc">
  <title id="title">Professional developer profile placeholder</title>
  <desc id="desc">A polished portrait-style illustration for a Django developer portfolio.</desc>
  <defs>
    <linearGradient id="bg" x1="0" x2="1" y1="0" y2="1">
      <stop offset="0" stop-color="#0f766e"/>
      <stop offset="0.55" stop-color="#172033"/>
      <stop offset="1" stop-color="#ef476f"/>
    </linearGradient>
    <linearGradient id="shirt" x1="0" x2="1">
      <stop offset="0" stop-color="#101827"/>
      <stop offset="1" stop-color="#26324a"/>
    </linearGradient>
  </defs>
  <rect width="900" height="900" fill="url(#bg)"/>
  <circle cx="704" cy="176" r="130" fill="#2dd4bf" opacity=".22"/>
  <circle cx="180" cy="730" r="180" fill="#fbbf24" opacity=".18"/>
  <path d="M196 812c18-178 124-284 254-284s236 106 254 284H196z" fill="url(#shirt)"/>
  <path d="M320 602c72 60 190 60 260 0l-36 210H356l-36-210z" fill="#f8fafc"/>
  <path d="M292 334c0-104 70-186 158-186s158 82 158 186c0 124-70 224-158 224S292 458 292 334z" fill="#c8865f"/>
  <path d="M274 330c18-126 92-208 190-208 90 0 158 58 180 162-80-10-150-42-210-98-42 72-96 118-160 144z" fill="#111827"/>
  <path d="M346 388c28 22 58 22 86 0" fill="none" stroke="#111827" stroke-width="12" stroke-linecap="round" opacity=".72"/>
  <path d="M468 388c28 22 58 22 86 0" fill="none" stroke="#111827" stroke-width="12" stroke-linecap="round" opacity=".72"/>
  <path d="M418 482c28 18 58 18 86 0" fill="none" stroke="#7f3f2d" stroke-width="14" stroke-linecap="round"/>
  <path d="M260 616l94-48 96 244H244l16-196z" fill="#111827"/>
  <path d="M640 616l-94-48-96 244h206l-16-196z" fill="#111827"/>
  <path d="M356 812l94-244 94 244" fill="none" stroke="#2dd4bf" stroke-width="10" opacity=".8"/>
  <rect x="250" y="690" width="400" height="86" rx="18" fill="#0b1120" opacity=".85"/>
  <text x="450" y="746" font-family="Arial, sans-serif" font-size="36" font-weight="700" fill="#f8fafc" text-anchor="middle">Django Developer</text>
</svg>
